<svg width="180" height="46" viewBox="0 0 180 46" fill="none" xmlns="http://www.w3.org/2000/svg">
<g clip-path="url(#clip0_11_1627)">
<g clip-path="url(#clip1_11_1627)">
<g clip-path="url(#clip2_11_1627)">
<path fill-rule="evenodd" clip-rule="evenodd" d="M22.4188 36.6538L22.3818 36.2072C22.3818 35.2379 24.2005 35.4707 24.878 35.4641C25.2961 35.4603 26.0706 35.2512 26.3661 35.0526C26.3281 34.912 26.2302 34.8208 26.1475 34.7124L25.0139 33.1645C24.4913 32.4708 24.5625 32.3178 23.8157 32.2722C22.014 32.1639 22.4103 31.646 21.5208 31.3315C21.0771 31.1747 20.1126 31.3714 19.5881 31.4028C19.1614 31.4284 18.7908 31.4921 18.3746 31.5672L16.0313 32.1658C15.8727 32.219 15.771 32.2532 15.6199 32.3131L14.8322 32.6048C14.2763 32.8158 13.4942 33.1541 12.9849 33.4391L11.2583 34.4312C10.9904 34.5899 10.7281 34.758 10.4687 34.931C10.4183 34.9642 10.3689 34.9985 10.3195 35.0317L10.3147 35.0355C10.0506 35.2161 9.79021 35.4033 9.5346 35.5943L9.53365 35.5952L9.49754 35.6228L9.46048 35.6503C9.43672 35.6684 9.41202 35.6874 9.38731 35.7054L9.38636 35.7064L9.35025 35.7339L9.31319 35.7615L9.31224 35.7624L9.27708 35.79L9.27423 35.7919L9.24287 35.8157L9.23812 35.8195L9.20677 35.8442L9.19631 35.8518L9.16781 35.8736L9.1317 35.9021L9.12029 35.9107L9.09464 35.9306L9.05853 35.9591L9.02432 35.9858L9.02242 35.9877L8.98536 36.0162L8.97586 36.0238L8.94925 36.0447L8.9464 36.0475L8.91599 36.0713L8.91314 36.0732L8.88083 36.0988L8.87703 36.1017L8.84093 36.1302L8.83332 36.1359L8.80482 36.1587L8.78581 36.1739L8.76871 36.1872L8.73735 36.2119L8.7326 36.2157L8.69649 36.2442L8.69079 36.249L8.66133 36.2727L8.64328 36.287L8.62522 36.3012L8.61477 36.3098L8.59006 36.3297L8.55395 36.3582L8.5492 36.362L8.51785 36.3867L8.50169 36.4001L8.48174 36.4162L8.45418 36.4381L8.44563 36.4447L8.41047 36.4732L8.38101 36.497L8.37436 36.5027L8.35916 36.5141L8.33825 36.5312L8.3126 36.5521L8.30309 36.5597L8.26698 36.5882L8.26603 36.5891L8.23182 36.6167L8.21852 36.6272L8.19667 36.6452L8.17196 36.6652L8.16056 36.6747L8.1254 36.7032C7.73485 37.0215 7.3253 37.3522 6.97181 37.7104C6.86349 37.8207 6.79792 37.8482 6.6915 37.9508C6.21543 38.4098 5.84389 38.6977 5.24429 38.9619C5.03714 39.0531 4.88795 39.1082 4.64564 39.1453C4.37958 39.1861 4.45464 39.2308 4.29501 39.3543C4.12586 39.4855 3.8522 39.4132 3.64695 39.4132C3.55667 39.4132 3.13572 39.8228 2.86775 39.8998C2.72047 39.9416 2.58553 39.8351 2.4563 39.7477C2.21304 39.5843 2.26911 39.6736 1.97168 39.6736C1.98879 39.4703 2.19499 39.3325 2.19499 39.1149C2.19499 39.1073 2.19499 39.0997 2.19404 39.093C2.19404 39.0911 2.19309 39.0883 2.19309 39.0864C2.19309 39.0816 2.19214 39.0769 2.19119 39.0721C2.19119 39.0693 2.19024 39.0674 2.19024 39.0645C2.18929 39.0607 2.18834 39.056 2.18739 39.0522C2.18644 39.0493 2.18644 39.0474 2.18549 39.0446C2.18454 39.0408 2.18359 39.037 2.18168 39.0332C2.18073 39.0303 2.17978 39.0284 2.17883 39.0256C2.17788 39.0217 2.17598 39.0189 2.17503 39.0151C2.17408 39.0132 2.17218 39.0103 2.17123 39.0084C2.16933 39.0046 2.16743 39.0008 2.16458 38.997C2.16363 38.9951 2.16268 38.9932 2.16078 38.9913C2.15888 38.9875 2.15508 38.9828 2.15223 38.979C2.15223 38.978 2.15128 38.9771 2.15033 38.9761C2.14653 38.9704 2.14178 38.9657 2.13797 38.9609C2.13702 38.96 2.13607 38.959 2.13512 38.9571C2.13132 38.9533 2.12847 38.9495 2.12372 38.9457C2.12182 38.9438 2.11992 38.9429 2.11802 38.941C2.11422 38.9381 2.11137 38.9353 2.10757 38.9324C2.10567 38.9305 2.10377 38.9286 2.10187 38.9277C2.09806 38.9248 2.09521 38.922 2.09141 38.9191L2.08476 38.9144C2.08096 38.9115 2.07716 38.9087 2.07336 38.9068C2.07146 38.9058 2.06861 38.9039 2.06671 38.903C2.06196 38.9001 2.05815 38.8982 2.0534 38.8954C2.0515 38.8944 2.0496 38.8925 2.04675 38.8916C2.042 38.8887 2.03535 38.8859 2.0306 38.883L2.02585 38.8811C2.01159 38.8745 1.99639 38.8678 1.98024 38.8612L1.97548 38.8593C1.96883 38.8574 1.96313 38.8545 1.95648 38.8526L1.94888 38.8498C1.94223 38.8479 1.93747 38.846 1.93082 38.8441L1.92227 38.8412C1.91657 38.8393 1.90992 38.8374 1.90422 38.8355L1.89661 38.8336C1.88996 38.8317 1.88331 38.8298 1.87571 38.8288L1.86906 38.827C1.86146 38.8251 1.85385 38.8232 1.8453 38.8213L1.8415 38.8203C1.80254 38.8117 1.76073 38.8041 1.71702 38.7975H1.71322C1.69231 38.7937 1.67046 38.7908 1.64765 38.788C1.58969 38.7813 0.0303548 39.0075 -0.00195312 39.0522C0.0427079 39.2175 0.240357 39.322 0.384792 39.4104C0.86276 39.704 2.19499 39.4427 2.19499 39.9454C2.19499 40.163 1.98879 40.3008 1.97168 40.5041C2.26911 40.5041 2.21304 40.4148 2.4563 40.5782C2.58553 40.6647 2.72047 40.7711 2.86775 40.7293C3.13572 40.6533 3.55667 40.2438 3.64695 40.2438C3.8522 40.2438 4.12586 40.316 4.29501 40.1848C4.45369 40.0613 4.37958 40.0166 4.64564 39.9758C4.88795 39.9387 5.03714 39.8836 5.24429 39.7924C5.84389 39.5282 6.21448 39.2403 6.6915 38.7813C6.79792 38.6787 6.86349 38.6502 6.97181 38.5409C7.3253 38.1827 7.73485 37.853 8.1254 37.5337C8.99771 36.822 9.89283 36.1235 10.844 35.5192C14.9044 41.6045 21.8316 45.6135 29.6967 45.6135C42.2055 45.6135 52.3464 35.4726 52.3464 22.9637C52.3464 10.4549 42.2055 0.313965 29.6967 0.313965C17.1868 0.313965 7.04688 10.4549 7.04688 22.9637C7.04688 26.4169 7.82037 29.6885 9.20296 32.6172C9.47948 32.4404 9.74365 32.276 9.97836 32.1506C10.2321 32.0157 10.8393 31.704 10.9096 31.4427C10.7994 31.3895 10.7899 31.4009 10.6863 31.3306C10.7775 31.1576 10.9067 31.0417 11.0521 30.9144L11.4408 30.558C11.5168 30.4839 11.5671 30.4221 11.6451 30.3528C11.7306 30.2767 11.7619 30.2701 11.8494 30.1855C11.9387 30.0981 11.9444 30.0905 12.048 30.0107L12.4632 29.6448C12.7882 29.3351 13.1645 29.0823 13.4885 28.7706C13.6244 28.6395 13.7128 28.5217 13.8667 28.4038C14.0264 28.2822 14.1071 28.1492 14.2506 28.0066C14.8892 27.3719 15.3709 26.5965 15.9819 25.9399L17.2334 24.5468C17.5356 24.1686 18.7462 23.0331 19.1662 22.6445C19.8931 21.9727 20.621 21.3198 21.4097 20.7164L22.7286 19.7634C22.8987 19.6512 23.0004 19.561 23.1553 19.445L24.2148 18.568C24.2955 18.4995 24.3383 18.4701 24.4191 18.3998C24.8191 18.051 25.2144 17.6728 25.6354 17.3441C26.5238 16.6485 26.7072 16.4128 27.8237 15.6964C28.7417 15.1072 29.8515 14.7566 30.4397 13.7693C30.5443 13.5935 30.6089 13.4747 30.7096 13.2942C30.8968 12.9578 31.0602 12.6452 31.2598 12.3173C31.3216 12.2156 31.3463 12.1577 31.408 12.056C31.4612 11.9667 31.4993 11.9201 31.5572 11.8327C31.6171 11.7415 31.6399 11.6892 31.7007 11.6037C32.2765 10.8064 32.9607 10.0349 33.7827 9.47802C34.2473 9.1635 34.7434 8.90883 35.2916 8.71593C35.571 8.61711 35.9112 8.5658 36.1991 8.50593C36.8367 8.37385 38.0264 8.48408 38.7115 8.63136C40.2443 8.95824 40.1331 9.53599 41.1052 9.92463L42.8992 10.625C42.9809 10.6582 43.0655 10.6991 43.132 10.7266C43.4085 10.8397 44.5051 11.2246 44.6115 11.3699C44.4814 11.5476 43.9568 11.6759 43.7468 11.7348C43.2147 11.8831 41.3532 12.3116 41.0235 12.8095C41.0196 12.8162 41.014 12.8257 41.0101 12.8333C41.0063 12.8409 41.0016 12.8504 40.9978 12.858L39.943 14.7081C39.9031 14.7889 39.8794 14.8411 39.848 14.9105C39.7596 15.1053 39.6513 15.3951 39.6257 15.6194C39.5686 16.1088 39.6162 16.5829 39.6855 17.04C39.7653 17.5712 39.8917 18.051 40.0267 18.5604C40.2272 19.3167 40.1008 20.1938 39.9288 20.9122L39.6675 21.8425C39.6352 21.9413 39.6124 22.042 39.5838 22.1313C39.4527 22.538 39.3425 22.9485 39.2066 23.3552C39.0147 23.9292 38.8161 24.5364 38.5538 25.0856C38.1461 25.938 37.5418 27.0754 36.8757 27.7643C36.2438 28.4181 36.1459 28.515 35.6366 29.2809L35.2603 29.7988C34.8783 30.1846 34.3728 30.4307 33.9547 30.7652C33.0158 31.5178 31.8404 32.1193 30.5718 32.1116C29.5294 32.1059 28.4851 32.1116 27.4427 32.1116L27.3686 32.8566C27.3686 33.1693 27.7392 33.6387 27.9264 33.899C27.9815 33.976 28.0442 34.0463 28.1079 34.1271C28.1687 34.2031 28.2257 34.282 28.2903 34.3542C29.0039 35.1619 29.1351 34.2335 29.8259 34.2335C29.9637 34.2335 30.0045 34.2953 30.1604 34.3076C30.1556 34.5271 29.9608 34.5851 29.7413 34.7447C29.6625 34.8018 29.5456 34.8664 29.4582 34.9091C29.3242 34.9766 29.271 34.9443 29.1921 35.0517L29.863 35.1258C30.6592 35.1258 31.6152 34.4511 32.5559 34.8531C32.6804 34.9063 32.783 34.9614 32.9047 35.0251C33.0405 35.0973 33.1394 35.1286 33.1774 35.274C32.2015 35.274 31.2512 35.35 30.4587 35.5344C30.7723 36.0029 30.5728 36.0561 29.9751 36.0561C30.0235 36.192 30.2687 36.3459 30.3837 36.4295C30.5063 36.5179 30.7296 36.6338 30.8873 36.7079C31.1847 36.8467 31.4536 36.9037 31.7777 36.9721C32.5493 37.1355 32.9522 36.9455 33.6667 36.6566L34.464 36.4105C34.8612 36.3193 35.4408 36.3202 35.4864 36.8752C35.1928 36.8505 35.3601 36.763 34.8536 36.763C34.7519 36.763 34.444 37.0291 34.444 37.1355C34.444 37.4776 34.9182 38.0383 34.6939 38.004C34.6597 37.9993 34.387 37.8311 34.3081 37.7931C34.1875 37.7351 34.006 37.6572 33.8482 37.6572C33.5622 37.6572 33.8311 37.8245 33.3807 37.9347C33.0168 38.0231 32.7042 38.0858 32.3839 38.2416C31.9915 38.4317 31.6152 38.3423 31.2047 38.216C29.8249 37.7931 29.6777 37.4235 28.0813 37.9594C27.6974 38.0886 27.1462 38.3281 26.6616 38.216L26.616 37.8891C26.597 37.7855 26.5818 37.7541 26.5001 37.7066C26.2597 37.5688 25.9565 37.6011 25.7408 37.7779C25.6639 37.8416 25.5917 37.9261 25.5166 38.0002C25.3598 38.1561 25.2591 38.3357 25.0975 38.4754C24.994 38.3993 24.9122 38.2397 24.9122 38.0658C24.9122 37.3816 26.3699 37.2847 26.8127 37.2486C27.2793 37.2106 27.7088 37.2952 28.1383 37.1954C28.9365 37.0101 29.1759 36.9046 28.8481 36.2898C28.2751 35.2151 26.5618 35.733 25.6981 35.9848C25.3113 36.0979 24.8486 36.1549 24.4903 36.3402C24.3649 36.4048 24.2651 36.4647 24.0931 36.4647C23.5563 36.4647 24.1568 35.9183 23.5724 35.923C23.0108 35.9268 22.7333 36.6243 22.4179 36.6509L22.4188 36.6538Z" fill="black"/>
<path d="M81.0807 33.2396H74.8623L69.2664 24.8947L68.2591 26.2972V33.2396H63.0908V12.7089H68.2591V21.8587L74.8253 12.7089H80.7699L73.4607 22.235L81.0807 33.2396Z" fill="black"/>
<path d="M82.7559 33.2396V12.7089H96.6511V16.6343H87.8957V20.2205H95.9727V24.1468H87.8957V29.3142H96.6511V33.2396H82.7559Z" fill="black"/>
<path d="M117.751 33.2396H112.785L104.846 18.9262V33.2396H100.129V12.7089H106.464L113.035 24.4709V12.7089H117.751V33.2396Z" fill="black"/>
<path d="M139.511 33.2396H134.546L126.605 18.9262V33.2396H121.888V12.7089H128.225L134.795 24.4709V12.7089H139.511V33.2396Z" fill="black"/>
<path d="M143.649 33.2396V12.7089H157.543V16.6343H148.789V20.2205H156.865V24.1468H148.789V29.3142H157.543V33.2396H143.649Z" fill="black"/>
<path d="M180 33.2396H173.702L167.988 25.6995H166.162V33.2396H161.022V12.7079H169.282C170.422 12.7079 171.415 12.7782 172.262 12.9198C173.109 13.0652 173.891 13.3626 174.607 13.8092C175.341 14.2796 175.924 14.8725 176.358 15.5928C176.791 16.3131 177.007 17.231 177.007 18.3418C177.007 19.9135 176.653 21.1849 175.943 22.1637C175.232 23.1434 174.285 23.9197 173.095 24.4984L180 33.2386V33.2396ZM171.697 18.9775C171.697 18.4597 171.598 18.0168 171.4 17.6453C171.203 17.2738 170.878 16.982 170.422 16.7796C170.101 16.6428 169.744 16.5582 169.349 16.5212C168.954 16.4832 168.464 16.4651 167.881 16.4651H166.163V22.0002H167.631C168.346 22.0002 168.954 21.9575 169.452 21.8681C169.951 21.7836 170.375 21.5954 170.723 21.3085C171.053 21.0547 171.297 20.7431 171.457 20.3858C171.617 20.0285 171.697 19.5572 171.697 18.9785V18.9775Z" fill="black"/>
</g>
</g>
</g>
<defs>
<clipPath id="clip0_11_1627">
<rect width="180" height="45.3" fill="white" transform="translate(0 0.309937)"/>
</clipPath>
<clipPath id="clip1_11_1627">
<rect width="180" height="45.3" fill="white" transform="translate(0 0.309937)"/>
</clipPath>
<clipPath id="clip2_11_1627">
<rect width="180" height="45.3" fill="white" transform="translate(0 0.309937)"/>
</clipPath>
</defs>
</svg>
