<svg width="20" height="17" viewBox="0 0 20 17" fill="none" xmlns="http://www.w3.org/2000/svg">
<path d="M19.8438 7.07031V7.61719C19.8438 8.0957 19.4678 8.4375 19.0234 8.4375H18.75L17.8271 14.6924C17.7246 15.5127 17.041 16.0938 16.2207 16.0938H3.74512C2.9248 16.0938 2.24121 15.5127 2.13867 14.6924L1.25 8.4375H0.976562C0.498047 8.4375 0.15625 8.0957 0.15625 7.61719V7.07031C0.15625 6.62598 0.498047 6.25 0.976562 6.25H3.2666L6.92383 1.25977C7.26562 0.74707 7.94922 0.644531 8.42773 1.02051C8.94043 1.3623 9.04297 2.0459 8.66699 2.52441L5.9668 6.25H13.999L11.2988 2.52441C10.9229 2.0459 11.0254 1.3623 11.5381 1.02051C12.0166 0.644531 12.7002 0.74707 13.042 1.25977L16.6992 6.25H19.0234C19.4678 6.25 19.8438 6.62598 19.8438 7.07031ZM10.8203 13.0859V9.25781C10.8203 8.81348 10.4443 8.4375 10 8.4375C9.52148 8.4375 9.17969 8.81348 9.17969 9.25781V13.0859C9.17969 13.5645 9.52148 13.9062 10 13.9062C10.4443 13.9062 10.8203 13.5645 10.8203 13.0859ZM14.6484 13.0859V9.25781C14.6484 8.81348 14.2725 8.4375 13.8281 8.4375C13.3496 8.4375 13.0078 8.81348 13.0078 9.25781V13.0859C13.0078 13.5645 13.3496 13.9062 13.8281 13.9062C14.2725 13.9062 14.6484 13.5645 14.6484 13.0859ZM6.99219 13.0859V9.25781C6.99219 8.81348 6.61621 8.4375 6.17188 8.4375C5.69336 8.4375 5.35156 8.81348 5.35156 9.25781V13.0859C5.35156 13.5645 5.69336 13.9062 6.17188 13.9062C6.61621 13.9062 6.99219 13.5645 6.99219 13.0859Z" fill="#F2F4F7"/>
</svg>
