<svg width="50" height="50" viewBox="0 0 50 50" fill="none" xmlns="http://www.w3.org/2000/svg">
<g clip-path="url(#clip0_71_1551)">
<path d="M17.1875 45.3125C18.9134 45.3125 20.3125 43.9134 20.3125 42.1875C20.3125 40.4616 18.9134 39.0625 17.1875 39.0625C15.4616 39.0625 14.0625 40.4616 14.0625 42.1875C14.0625 43.9134 15.4616 45.3125 17.1875 45.3125Z" fill="#292929"/>
<path d="M37.5 45.3125C39.2259 45.3125 40.625 43.9134 40.625 42.1875C40.625 40.4616 39.2259 39.0625 37.5 39.0625C35.7741 39.0625 34.375 40.4616 34.375 42.1875C34.375 43.9134 35.7741 45.3125 37.5 45.3125Z" fill="#292929"/>
<path d="M3.125 6.25H7.8125L14.9902 32.0859C15.1729 32.7439 15.5661 33.324 16.1096 33.7374C16.6531 34.1507 17.3171 34.3747 18 34.375H37.3047C37.9879 34.3751 38.6523 34.1514 39.1963 33.7379C39.7402 33.3245 40.1336 32.7442 40.3164 32.0859L45.3125 14.0625H9.98242" stroke="#292929" stroke-width="2" stroke-linecap="round" stroke-linejoin="round"/>
</g>
<defs>
<clipPath id="clip0_71_1551">
<rect width="50" height="50" fill="white"/>
</clipPath>
</defs>
</svg>
