<svg width="17" height="17" viewBox="0 0 17 17" fill="none" xmlns="http://www.w3.org/2000/svg">
<path d="M14.3341 5.71773C14.2381 5.62173 14.1234 5.57373 13.9901 5.57373C13.8568 5.57373 13.7421 5.62173 13.6461 5.71773L8.99008 10.3737L4.33408 5.71773C4.23808 5.62173 4.12342 5.57373 3.99008 5.57373C3.85675 5.57373 3.73942 5.6244 3.63808 5.72573C3.53675 5.82706 3.48608 5.94173 3.48608 6.06973C3.48608 6.19773 3.53942 6.31506 3.64608 6.42173L8.63808 11.4137C8.68075 11.4671 8.73675 11.5071 8.80608 11.5337C8.87542 11.5604 8.93675 11.5737 8.99008 11.5737C9.04342 11.5737 9.10475 11.5604 9.17408 11.5337C9.24342 11.5071 9.29942 11.4671 9.34208 11.4137L14.3341 6.42173C14.4408 6.31506 14.4941 6.19773 14.4941 6.06973C14.4941 5.94173 14.4408 5.8244 14.3341 5.71773Z" fill="#333333"/>
</svg>
