<svg width="20" height="20" viewBox="0 0 20 20" fill="none" xmlns="http://www.w3.org/2000/svg">
<path d="M8.87179 17.488C7.31979 17.488 5.87179 17.096 4.52779 16.312C3.23179 15.544 2.20779 14.512 1.45579 13.216C0.671785 11.872 0.279785 10.42 0.279785 8.86C0.279785 7.3 0.671785 5.848 1.45579 4.504C2.22379 3.208 3.25579 2.184 4.55178 1.432C5.89579 0.648003 7.34778 0.256002 8.90779 0.256002C10.4678 0.256002 11.9118 0.648003 13.2398 1.432C14.5518 2.2 15.5838 3.232 16.3358 4.528C17.1198 5.872 17.5118 7.324 17.5118 8.884C17.5118 10.444 17.1198 11.888 16.3358 13.216C15.5678 14.512 14.5278 15.544 13.2158 16.312C11.8878 17.096 10.4398 17.488 8.87179 17.488ZM8.87179 1.744C7.57579 1.744 6.37579 2.072 5.27179 2.728C4.19979 3.352 3.35179 4.2 2.72779 5.272C2.07179 6.376 1.74379 7.576 1.74379 8.872C1.74379 10.168 2.07179 11.368 2.72779 12.472C3.35179 13.544 4.19979 14.392 5.27179 15.016C6.37579 15.672 7.57579 16 8.87179 16C10.1678 16 11.3678 15.672 12.4718 15.016C13.5438 14.392 14.3918 13.544 15.0158 12.472C15.6718 11.368 15.9998 10.168 15.9998 8.872C15.9998 7.576 15.6718 6.376 15.0158 5.272C14.3918 4.2 13.5438 3.352 12.4718 2.728C11.3678 2.072 10.1678 1.744 8.87179 1.744ZM18.9998 19.744C18.7918 19.744 18.6158 19.672 18.4718 19.528L13.9118 14.968C13.8158 14.888 13.7438 14.784 13.6958 14.656C13.6478 14.528 13.6358 14.4 13.6598 14.272C13.6838 14.144 13.7358 14.028 13.8158 13.924C13.8958 13.82 14.0038 13.74 14.1398 13.684C14.2758 13.628 14.4238 13.62 14.5838 13.66C14.7438 13.7 14.8718 13.784 14.9678 13.912L19.5278 18.472C19.6398 18.584 19.7078 18.712 19.7318 18.856C19.7558 19 19.7398 19.144 19.6838 19.288C19.6278 19.432 19.5358 19.544 19.4078 19.624C19.2798 19.704 19.1438 19.744 18.9998 19.744Z" fill="#808080"/>
</svg>
