<svg width="50" height="50" viewBox="0 0 50 50" fill="none" xmlns="http://www.w3.org/2000/svg">
<g clip-path="url(#clip0_71_767)">
<path d="M43.75 25H37.5C36.6712 25 35.8763 25.3292 35.2903 25.9153C34.7042 26.5013 34.375 27.2962 34.375 28.125V35.9375C34.375 36.7663 34.7042 37.5612 35.2903 38.1472C35.8763 38.7333 36.6712 39.0625 37.5 39.0625H40.625C41.4538 39.0625 42.2487 38.7333 42.8347 38.1472C43.4208 37.5612 43.75 36.7663 43.75 35.9375V25ZM43.75 25C43.75 22.5377 43.265 20.0995 42.3227 17.8247C41.3805 15.5498 39.9993 13.4828 38.2583 11.7417C36.5172 10.0006 34.4502 8.61953 32.1753 7.67726C29.9005 6.73498 27.4623 6.25 25 6.25C22.5377 6.25 20.0995 6.73498 17.8247 7.67726C15.5498 8.61953 13.4828 10.0006 11.7417 11.7417C10.0006 13.4828 8.61953 15.5498 7.67726 17.8247C6.73498 20.0995 6.25 22.5377 6.25 25M6.25 25V35.9375C6.25 36.7663 6.57924 37.5612 7.16529 38.1472C7.75134 38.7333 8.5462 39.0625 9.375 39.0625H12.5C13.3288 39.0625 14.1237 38.7333 14.7097 38.1472C15.2958 37.5612 15.625 36.7663 15.625 35.9375V28.125C15.625 27.2962 15.2958 26.5013 14.7097 25.9153C14.1237 25.3292 13.3288 25 12.5 25H6.25Z" stroke="#292929" stroke-width="2" stroke-linecap="round" stroke-linejoin="round"/>
</g>
<defs>
<clipPath id="clip0_71_767">
<rect width="50" height="50" fill="white"/>
</clipPath>
</defs>
</svg>
