<svg width="31" height="31" viewBox="0 0 31 31" fill="none" xmlns="http://www.w3.org/2000/svg">
<g clip-path="url(#clip0_19_14577)">
<g clip-path="url(#clip1_19_14577)">
<g clip-path="url(#clip2_19_14577)">
<path d="M15.3999 0.680176C23.6828 0.680176 30.3999 7.39725 30.3999 15.6802C30.3999 23.9631 23.6828 30.6802 15.3999 30.6802C7.11717 30.6802 0.399902 23.9631 0.399902 15.6802C0.399902 7.39725 7.11698 0.680176 15.3999 0.680176Z" fill="#1E2E33"/>
<path d="M22.1463 9.64209H8.65335C8.18722 9.64228 7.75118 9.87244 7.48804 10.2572L14.2338 15.0404C14.5746 15.2812 14.9817 15.4106 15.3991 15.4106C15.8164 15.4106 16.2237 15.2812 16.5643 15.0404L23.3093 10.2571C23.0467 9.87321 22.6115 9.64287 22.1463 9.64209Z" fill="white"/>
<path d="M17.1485 15.8625C16.6374 16.224 16.0259 16.4188 15.3995 16.4188C14.7731 16.4188 14.1616 16.224 13.6507 15.8623L7.24097 11.3179V20.3052C7.24097 21.0853 7.87359 21.7178 8.65351 21.7178H22.1463C22.9262 21.7178 23.5588 21.0853 23.5588 20.3052V11.3179L17.1485 15.8625Z" fill="white"/>
</g>
</g>
</g>
<defs>
<clipPath id="clip0_19_14577">
<rect width="30" height="30" fill="white" transform="translate(0.399902 0.680176)"/>
</clipPath>
<clipPath id="clip1_19_14577">
<rect width="30" height="30" fill="white" transform="translate(0.399902 0.680176)"/>
</clipPath>
<clipPath id="clip2_19_14577">
<rect width="30" height="30" fill="white" transform="translate(0.399902 0.680176)"/>
</clipPath>
</defs>
</svg>
