<svg width="69" height="41" viewBox="0 0 69 41" fill="none" xmlns="http://www.w3.org/2000/svg">
<g clip-path="url(#clip0_18_654)">
<g clip-path="url(#clip1_18_654)">
<g clip-path="url(#clip2_18_654)">
<path fill-rule="evenodd" clip-rule="evenodd" d="M34.2398 6.94539C34.2398 6.96364 34.2398 6.98189 34.2398 7.00014C31.0364 10.3222 29.169 14.2942 28.6382 18.9156C28.166 24.4182 29.6358 29.3213 33.0484 33.625C33.4318 34.0768 33.829 34.515 34.24 34.9399C34.24 34.9583 34.24 34.9764 34.24 34.9946C30.2983 38.8817 25.5414 40.872 19.9687 40.966C14.1599 40.8529 9.26125 38.7073 5.27308 34.5291C2.07466 30.9787 0.316967 26.8062 0 22.0109C0 21.317 0 20.623 0 19.9292C0.371717 14.5342 2.50836 9.98266 6.40976 6.27409C10.6954 2.44088 15.7263 0.696956 21.5028 1.04233C26.4742 1.48774 30.7201 3.45531 34.24 6.94539H34.2398Z" fill="#EA001A"/>
<path fill-rule="evenodd" clip-rule="evenodd" d="M68.4797 19.929C68.4797 20.6229 68.4797 21.3169 68.4797 22.0108C68.108 27.4059 65.9714 31.9573 62.07 35.6658C57.7843 39.499 52.7535 41.2431 46.9771 40.8976C42.0071 40.4481 37.7613 38.4805 34.2397 34.9945C34.2397 34.9763 34.2397 34.9582 34.2397 34.9398C37.704 31.3411 39.5987 27.0314 39.9236 22.0108C40.1268 16.5018 38.4192 11.6898 34.8014 7.57526C34.6078 7.38639 34.4205 7.19459 34.2397 7.00004C34.2397 6.98179 34.2397 6.96354 34.2397 6.94529C38.1816 3.07161 42.9342 1.08114 48.4972 0.973877C54.3149 1.0758 59.218 3.2214 63.2067 7.41084C66.4053 10.961 68.1628 15.1337 68.4797 19.929Z" fill="#FFA300" fill-opacity="0.8"/>
<path fill-rule="evenodd" clip-rule="evenodd" d="M34.2396 7C34.4204 7.19455 34.6077 7.38635 34.8013 7.57522C38.4191 11.6898 40.1267 16.5018 39.9235 22.0107C39.5986 27.0314 37.7039 31.341 34.2396 34.9397C33.8288 34.515 33.4316 34.0767 33.048 33.6249C29.6356 29.3211 28.1656 24.4179 28.6379 18.9154C29.1687 14.2939 31.0361 10.322 34.2395 7H34.2396Z" fill="#FA8105"/>
</g>
</g>
</g>
<defs>
<clipPath id="clip0_18_654">
<rect width="68.48" height="40" fill="white" transform="translate(0 0.969971)"/>
</clipPath>
<clipPath id="clip1_18_654">
<rect width="68.48" height="40" fill="white" transform="translate(0 0.969971)"/>
</clipPath>
<clipPath id="clip2_18_654">
<rect width="68.48" height="39.9922" fill="white" transform="translate(0 0.973877)"/>
</clipPath>
</defs>
</svg>
