<svg width="80" height="24" viewBox="0 0 80 24" fill="none" xmlns="http://www.w3.org/2000/svg">
<g clip-path="url(#clip0_18_620)">
<g clip-path="url(#clip1_18_620)">
<path fill-rule="evenodd" clip-rule="evenodd" d="M0.029327 0.619252C2.74252 0.594888 5.45571 0.619252 8.16838 0.691825C9.61828 1.07594 10.6115 1.97222 11.1475 3.38065C12.0935 6.82683 13.0629 10.2663 14.054 13.6995C14.2064 13.9333 14.4247 14.0297 14.7082 13.9903C15.6849 10.1325 16.775 6.30534 17.9782 2.50874C18.6199 1.62646 19.4675 1.02099 20.5213 0.691825C23.2822 0.619252 26.0436 0.594888 28.8055 0.619252C28.8055 8.17668 28.8055 15.7346 28.8055 23.2915C26.3831 23.2915 23.9608 23.2915 21.5389 23.2915C21.5389 18.8345 21.5389 14.3775 21.5389 9.92051C21.345 9.92051 21.1512 9.92051 20.9573 9.92051C19.6494 14.3775 18.341 18.8345 17.0332 23.2915C15.2867 23.3398 13.5424 23.2915 11.8012 23.1464C10.4249 18.8485 9.09265 14.5372 7.80448 10.2113C7.64948 9.95213 7.43125 9.87955 7.15028 9.99308C7.29491 14.4148 7.34364 18.848 7.29543 23.2915C4.87305 23.2915 2.45067 23.2915 0.0288086 23.2915C0.0288086 15.7341 0.0288086 8.17668 0.0288086 0.619252H0.029327Z" fill="#00B556" fill-opacity="0.980392"/>
<path fill-rule="evenodd" clip-rule="evenodd" d="M31.7129 0.619252C34.1353 0.619252 36.5577 0.619252 38.9795 0.619252C38.9795 5.07627 38.9795 9.53328 38.9795 13.9903C39.1718 14.0152 39.3413 13.9664 39.488 13.8451C41.1748 10.2289 42.8222 6.59563 44.4297 2.9447C44.9875 1.87684 45.8356 1.12571 46.9729 0.691825C49.443 0.619252 51.9141 0.594888 54.3852 0.619252C54.3852 8.17668 54.3852 15.7346 54.3852 23.2915C51.9628 23.2915 49.5404 23.2915 47.1186 23.2915C47.1186 18.8345 47.1186 14.3775 47.1186 9.92051C46.9034 9.88215 46.7101 9.93088 46.5369 10.0657C44.8999 13.7415 43.2769 17.4235 41.6683 21.1113C41.1427 22.1216 40.3434 22.824 39.2703 23.2185C36.7515 23.291 34.2327 23.3154 31.7129 23.291C31.7129 15.7336 31.7129 8.17617 31.7129 0.618734V0.619252Z" fill="#00B556" fill-opacity="0.980392"/>
<path fill-rule="evenodd" clip-rule="evenodd" d="M64.4138 0.619141C64.4138 3.57441 64.4138 6.52969 64.4138 9.48444C60.8163 8.42332 58.3213 6.14609 56.9289 2.65377C56.6537 1.99854 56.4842 1.32051 56.4204 0.619141C59.0849 0.619141 61.7493 0.619141 64.4138 0.619141Z" fill="#00B4E8" fill-opacity="0.980392"/>
<path fill-rule="evenodd" clip-rule="evenodd" d="M64.4141 0.619141C65.1408 0.619141 65.8676 0.619141 66.5938 0.619141C66.5938 3.71956 66.5938 6.8205 66.5938 9.92091C65.8189 9.93232 65.0921 9.78717 64.4141 9.48496C64.4141 6.52969 64.4141 3.57441 64.4141 0.619659V0.619141Z" fill="#00B1E5" fill-opacity="0.988235"/>
<path fill-rule="evenodd" clip-rule="evenodd" d="M66.5938 0.619141C67.3205 0.619141 68.0473 0.619141 68.7735 0.619141C68.7735 3.76829 68.7735 6.91691 68.7735 10.0661C68.0333 10.1065 67.3065 10.0583 66.5938 9.92091C66.5938 6.8205 66.5938 3.72008 66.5938 0.619141Z" fill="#00ABE2" fill-opacity="0.988235"/>
<path fill-rule="evenodd" clip-rule="evenodd" d="M68.7739 0.619141C68.8709 0.619141 68.9678 0.619141 69.0647 0.619141C69.0647 3.76829 69.0647 6.91691 69.0647 10.0661C68.9678 10.0661 68.8709 10.0661 68.7739 10.0661C68.7739 6.91691 68.7739 3.76829 68.7739 0.619141Z" fill="#00A9E0" fill-opacity="0.988235"/>
<path fill-rule="evenodd" clip-rule="evenodd" d="M69.0645 0.619141C69.743 0.619141 70.4205 0.619141 71.0991 0.619141C71.0991 3.76829 71.0991 6.91691 71.0991 10.0661C70.4205 10.0661 69.743 10.0661 69.0645 10.0661C69.0645 6.91691 69.0645 3.76829 69.0645 0.619141Z" fill="#00A5DE" fill-opacity="0.988235"/>
<path fill-rule="evenodd" clip-rule="evenodd" d="M71.0991 0.619141C71.5351 0.619141 71.971 0.619141 72.407 0.619141C72.407 3.76829 72.407 6.91691 72.407 10.0661C71.971 10.0661 71.5351 10.0661 71.0991 10.0661C71.0991 6.91691 71.0991 3.76829 71.0991 0.619141Z" fill="#00A0DB" fill-opacity="0.988235"/>
<path fill-rule="evenodd" clip-rule="evenodd" d="M72.4072 0.619141C72.795 0.619141 73.1822 0.619141 73.57 0.619141C73.57 3.76829 73.57 6.91691 73.57 10.0661C73.1822 10.0661 72.795 10.0661 72.4072 10.0661C72.4072 6.91691 72.4072 3.76829 72.4072 0.619141Z" fill="#009DD9" fill-opacity="0.984314"/>
<path fill-rule="evenodd" clip-rule="evenodd" d="M73.5698 0.619141C74.4894 0.765323 75.3126 1.10434 76.0404 1.6362C76.0404 4.44633 76.0404 7.25593 76.0404 10.0661C75.2167 10.0661 74.3935 10.0661 73.5698 10.0661C73.5698 6.91691 73.5698 3.76829 73.5698 0.619141Z" fill="#0099D6" fill-opacity="0.976471"/>
<path fill-rule="evenodd" clip-rule="evenodd" d="M76.0405 1.63626C76.2017 1.64455 76.3469 1.69328 76.4765 1.78141C76.4765 4.54281 76.4765 7.3042 76.4765 10.0656C76.3313 10.0656 76.1857 10.0656 76.0405 10.0656C76.0405 7.256 76.0405 4.44587 76.0405 1.63574V1.63626Z" fill="#0096D4" fill-opacity="0.980392"/>
<path fill-rule="evenodd" clip-rule="evenodd" d="M76.4766 1.78198C77.5605 2.47765 78.3842 3.39828 78.9472 4.54338C78.9472 6.38414 78.9472 8.22542 78.9472 10.0662C78.1235 10.0662 77.3003 10.0662 76.4766 10.0662C76.4766 7.30478 76.4766 4.54338 76.4766 1.78198Z" fill="#0092D1" fill-opacity="0.972549"/>
<path fill-rule="evenodd" clip-rule="evenodd" d="M78.9473 4.54346C79.3272 5.00067 79.5693 5.53356 79.674 6.14213C79.674 7.45 79.674 8.75839 79.674 10.0663C79.432 10.0663 79.1899 10.0663 78.9473 10.0663C78.9473 8.2255 78.9473 6.38422 78.9473 4.54346Z" fill="#008ECF" fill-opacity="0.941176"/>
<path fill-rule="evenodd" clip-rule="evenodd" d="M79.6738 6.14209C79.8993 6.85434 79.9963 7.60495 79.9646 8.39496C79.9631 9.00976 79.8661 9.56701 79.6738 10.0662C79.6738 8.75834 79.6738 7.44996 79.6738 6.14209Z" fill="#008DCE" fill-opacity="0.788235"/>
<path fill-rule="evenodd" clip-rule="evenodd" d="M57.4375 10.793C64.8503 10.7448 72.2626 10.793 79.6744 10.9381C78.4774 13.8053 76.3459 15.5252 73.2796 16.0975C70.3731 16.1463 67.466 16.1945 64.5595 16.2427C64.7036 18.5811 64.7523 20.9309 64.7046 23.2916C62.2823 23.2916 59.8599 23.2916 57.4375 23.2916C57.4375 19.1254 57.4375 14.9592 57.4375 10.7925V10.793Z" fill="#00B556" fill-opacity="0.964706"/>
</g>
</g>
<defs>
<clipPath id="clip0_18_620">
<rect width="80" height="22.7" fill="white" transform="translate(0 0.609863)"/>
</clipPath>
<clipPath id="clip1_18_620">
<rect width="79.9417" height="22.7" fill="white" transform="translate(0.0292969 0.609863)"/>
</clipPath>
</defs>
</svg>
