<svg width="180" height="47" viewBox="0 0 180 47" fill="none" xmlns="http://www.w3.org/2000/svg">
<path fill-rule="evenodd" clip-rule="evenodd" d="M22.4198 37.0903L22.3827 36.6437C22.3827 35.6744 24.2015 35.9072 24.879 35.9006C25.2971 35.8968 26.0715 35.6877 26.3671 35.4891C26.3291 35.3485 26.2312 35.2573 26.1485 35.149L25.0149 33.601C24.4923 32.9074 24.5635 32.7544 23.8166 32.7088C22.015 32.6004 22.4112 32.0826 21.5218 31.768C21.0781 31.6112 20.1136 31.8079 19.5891 31.8393C19.1624 31.865 18.7918 31.9286 18.3756 32.0037L16.0323 32.6023C15.8736 32.6555 15.772 32.6898 15.6209 32.7496L14.8331 33.0413C14.2772 33.2523 13.4952 33.5906 12.9859 33.8756L11.2593 34.8677C10.9913 35.0264 10.7291 35.1946 10.4697 35.3675C10.4193 35.4008 10.3699 35.435 10.3205 35.4682L10.3157 35.472C10.0515 35.6526 9.79119 35.8398 9.53557 36.0308L9.53462 36.0317L9.49851 36.0593L9.46145 36.0868C9.4377 36.1049 9.41299 36.1239 9.38829 36.142L9.38734 36.1429L9.35123 36.1705L9.31417 36.198L9.31322 36.199L9.27806 36.2265L9.27521 36.2284L9.24385 36.2522L9.2391 36.256L9.20774 36.2807L9.19729 36.2883L9.16878 36.3102L9.13267 36.3387L9.12127 36.3472L9.09561 36.3672L9.05951 36.3957L9.0253 36.4223L9.0234 36.4242L8.98634 36.4527L8.97683 36.4603L8.95023 36.4812L8.94738 36.484L8.91697 36.5078L8.91412 36.5097L8.88181 36.5354L8.87801 36.5382L8.8419 36.5667L8.8343 36.5724L8.80579 36.5952L8.78679 36.6104L8.76968 36.6237L8.73833 36.6484L8.73357 36.6522L8.69747 36.6807L8.69176 36.6855L8.66231 36.7092L8.64425 36.7235L8.6262 36.7378L8.61575 36.7463L8.59104 36.7663L8.55493 36.7948L8.55018 36.7986L8.51882 36.8233L8.50267 36.8366L8.48271 36.8527L8.45516 36.8746L8.4466 36.8812L8.41145 36.9097L8.38199 36.9335L8.37534 36.9392L8.36013 36.9506L8.33923 36.9677L8.31357 36.9886L8.30407 36.9962L8.26796 37.0247L8.26701 37.0257L8.2328 37.0532L8.2195 37.0637L8.19764 37.0817L8.17294 37.1017L8.16153 37.1112L8.12638 37.1397C7.73583 37.458 7.32628 37.7887 6.97279 38.1469C6.86446 38.2572 6.7989 38.2847 6.69247 38.3874C6.2164 38.8463 5.84486 39.1342 5.24527 39.3984C5.03811 39.4896 4.88893 39.5447 4.64662 39.5818C4.38055 39.6227 4.45562 39.6673 4.29598 39.7909C4.12684 39.922 3.85317 39.8498 3.64792 39.8498C3.55765 39.8498 3.1367 40.2593 2.86873 40.3363C2.72144 40.3781 2.58651 40.2717 2.45728 40.1842C2.21402 40.0208 2.27008 40.1101 1.97266 40.1101C1.98976 39.9068 2.19596 39.769 2.19596 39.5514C2.19596 39.5438 2.19596 39.5362 2.19501 39.5295C2.19501 39.5276 2.19406 39.5248 2.19406 39.5229C2.19406 39.5181 2.19311 39.5134 2.19216 39.5086C2.19216 39.5058 2.19121 39.5039 2.19121 39.501C2.19026 39.4972 2.18931 39.4925 2.18836 39.4887C2.18741 39.4858 2.18741 39.4839 2.18646 39.4811C2.18551 39.4773 2.18456 39.4735 2.18266 39.4697C2.18171 39.4668 2.18076 39.4649 2.17981 39.4621C2.17886 39.4583 2.17696 39.4554 2.17601 39.4516C2.17506 39.4497 2.17316 39.4469 2.17221 39.445C2.17031 39.4412 2.16841 39.4374 2.16556 39.4336C2.16461 39.4317 2.16366 39.4298 2.16176 39.4279C2.15986 39.4241 2.15605 39.4193 2.1532 39.4155C2.1532 39.4146 2.15225 39.4136 2.1513 39.4127C2.1475 39.407 2.14275 39.4022 2.13895 39.3975C2.138 39.3965 2.13705 39.3956 2.1361 39.3937C2.1323 39.3899 2.12945 39.3861 2.1247 39.3823C2.1228 39.3804 2.1209 39.3794 2.119 39.3775C2.11519 39.3747 2.11234 39.3718 2.10854 39.369C2.10664 39.3671 2.10474 39.3652 2.10284 39.3642C2.09904 39.3613 2.09619 39.3585 2.09239 39.3556L2.08574 39.3509C2.08194 39.348 2.07814 39.3452 2.07433 39.3433C2.07243 39.3423 2.06958 39.3404 2.06768 39.3395C2.06293 39.3366 2.05913 39.3347 2.05438 39.3319C2.05248 39.3309 2.05058 39.329 2.04773 39.3281C2.04298 39.3252 2.03633 39.3224 2.03157 39.3195L2.02682 39.3176C2.01257 39.311 1.99737 39.3043 1.98121 39.2977L1.97646 39.2958C1.96981 39.2939 1.96411 39.291 1.95746 39.2891L1.94985 39.2863C1.9432 39.2844 1.93845 39.2825 1.9318 39.2806L1.92325 39.2777C1.91755 39.2758 1.91089 39.2739 1.90519 39.272L1.89759 39.2701C1.89094 39.2682 1.88429 39.2663 1.87669 39.2654L1.87003 39.2635C1.86243 39.2616 1.85483 39.2597 1.84628 39.2578L1.84248 39.2568C1.80352 39.2483 1.76171 39.2407 1.718 39.234H1.7142C1.69329 39.2302 1.67144 39.2274 1.64863 39.2245C1.59067 39.2179 0.0313314 39.444 -0.000976562 39.4887C0.0436844 39.654 0.241333 39.7585 0.385769 39.8469C0.863737 40.1405 2.19596 39.8792 2.19596 40.3819C2.19596 40.5995 1.98976 40.7373 1.97266 40.9406C2.27008 40.9406 2.21402 40.8513 2.45728 41.0148C2.58651 41.1012 2.72144 41.2077 2.86873 41.1658C3.1367 41.0898 3.55765 40.6803 3.64792 40.6803C3.85317 40.6803 4.12684 40.7525 4.29598 40.6214C4.45467 40.4978 4.38055 40.4532 4.64662 40.4123C4.88893 40.3752 5.03811 40.3201 5.24527 40.2289C5.84486 39.9647 6.21545 39.6768 6.69247 39.2179C6.7989 39.1152 6.86446 39.0867 6.97279 38.9775C7.32628 38.6192 7.73583 38.2895 8.12638 37.9702C8.99869 37.2585 9.89381 36.5601 10.845 35.9557C14.9053 42.041 21.8326 46.05 29.6976 46.05C42.2065 46.05 52.3474 35.9091 52.3474 23.4003C52.3474 10.8914 42.2065 0.750488 29.6976 0.750488C17.1878 0.750488 7.04786 10.8914 7.04786 23.4003C7.04786 26.8534 7.82135 30.1251 9.20394 33.0537C9.48046 32.8769 9.74462 32.7126 9.97933 32.5871C10.233 32.4522 10.8402 32.1405 10.9106 31.8792C10.8003 31.826 10.7908 31.8374 10.6873 31.7671C10.7785 31.5941 10.9077 31.4782 11.0531 31.3509L11.4417 30.9945C11.5178 30.9204 11.5681 30.8587 11.646 30.7893C11.7316 30.7133 11.7629 30.7066 11.8503 30.622C11.9397 30.5346 11.9454 30.527 12.0489 30.4472L12.4642 30.0814C12.7892 29.7716 13.1655 29.5188 13.4895 29.2071C13.6254 29.076 13.7138 28.9582 13.8677 28.8404C14.0273 28.7187 14.1081 28.5857 14.2516 28.4432C14.8901 27.8084 15.3719 27.033 15.9829 26.3764L17.2344 24.9834C17.5365 24.6052 18.7471 23.4696 19.1671 23.081C19.8941 22.4092 20.622 21.7564 21.4106 21.153L22.7296 20.1999C22.8997 20.0878 23.0013 19.9975 23.1562 19.8816L24.2157 19.0045C24.2965 18.9361 24.3393 18.9066 24.42 18.8363C24.8201 18.4876 25.2154 18.1094 25.6363 17.7806C26.5248 17.085 26.7082 16.8494 27.8247 16.1329C28.7427 15.5437 29.8525 15.1931 30.4407 14.2058C30.5452 14.03 30.6099 13.9112 30.7106 13.7307C30.8978 13.3943 31.0612 13.0817 31.2608 12.7538C31.3225 12.6522 31.3472 12.5942 31.409 12.4925C31.4622 12.4032 31.5002 12.3566 31.5582 12.2692C31.6181 12.178 31.6409 12.1257 31.7017 12.0402C32.2775 11.243 32.9617 10.4714 33.7836 9.91455C34.2483 9.60002 34.7443 9.34536 35.2926 9.15246C35.572 9.05363 35.9122 9.00232 36.2001 8.94246C36.8377 8.81037 38.0274 8.9206 38.7125 9.06789C40.2452 9.39477 40.1341 9.97251 41.1061 10.3612L42.9002 11.0615C42.9819 11.0947 43.0665 11.1356 43.133 11.1632C43.4095 11.2762 44.5061 11.6611 44.6125 11.8065C44.4823 11.9842 43.9578 12.1124 43.7478 12.1714C43.2157 12.3196 41.3542 12.7481 41.0244 13.2461C41.0206 13.2527 41.0149 13.2622 41.0111 13.2698C41.0073 13.2774 41.0026 13.2869 40.9988 13.2945L39.944 15.1446C39.9041 15.2254 39.8803 15.2777 39.849 15.347C39.7606 15.5418 39.6523 15.8317 39.6266 16.0559C39.5696 16.5453 39.6171 17.0194 39.6865 17.4765C39.7663 18.0077 39.8927 18.4876 40.0276 18.9969C40.2281 19.7533 40.1018 20.6303 39.9298 21.3487L39.6684 22.279C39.6361 22.3778 39.6133 22.4785 39.5848 22.5679C39.4537 22.9746 39.3435 23.3851 39.2076 23.7918C39.0156 24.3657 38.817 24.9729 38.5548 25.5221C38.1471 26.3745 37.5428 27.5119 36.8767 28.2009C36.2448 28.8546 36.1469 28.9515 35.6376 29.7174L35.2613 30.2353C34.8793 30.6211 34.3737 30.8672 33.9556 31.2017C33.0168 31.9543 31.8414 32.5558 30.5728 32.5482C29.5304 32.5425 28.4861 32.5482 27.4437 32.5482L27.3696 33.2932C27.3696 33.6058 27.7402 34.0752 27.9274 34.3356C27.9825 34.4125 28.0452 34.4828 28.1088 34.5636C28.1697 34.6396 28.2267 34.7185 28.2913 34.7907C29.0049 35.5984 29.1361 34.67 29.8269 34.67C29.9647 34.67 30.0055 34.7318 30.1614 34.7442C30.1566 34.9637 29.9618 35.0216 29.7423 35.1813C29.6634 35.2383 29.5466 35.3029 29.4591 35.3457C29.3251 35.4131 29.2719 35.3808 29.1931 35.4882L29.8639 35.5623C30.6602 35.5623 31.6162 34.8876 32.5569 35.2896C32.6814 35.3428 32.784 35.3979 32.9056 35.4616C33.0415 35.5338 33.1403 35.5652 33.1783 35.7106C32.2025 35.7106 31.2522 35.7866 30.4597 35.9709C30.7733 36.4394 30.5738 36.4926 29.9761 36.4926C30.0245 36.6285 30.2697 36.7824 30.3847 36.866C30.5072 36.9544 30.7305 37.0703 30.8883 37.1445C31.1857 37.2832 31.4546 37.3402 31.7787 37.4086C32.5502 37.5721 32.9531 37.382 33.6677 37.0931L34.465 36.847C34.8622 36.7558 35.4418 36.7568 35.4874 37.3117C35.1938 37.287 35.361 37.1996 34.8546 37.1996C34.7529 37.1996 34.445 37.4656 34.445 37.5721C34.445 37.9141 34.9192 38.4748 34.6949 38.4406C34.6607 38.4358 34.388 38.2676 34.3091 38.2296C34.1884 38.1717 34.007 38.0937 33.8492 38.0937C33.5632 38.0937 33.8321 38.261 33.3817 38.3712C33.0178 38.4596 32.7051 38.5223 32.3849 38.6781C31.9925 38.8682 31.6162 38.7789 31.2057 38.6525C29.8259 38.2296 29.6786 37.86 28.0822 38.3959C27.6983 38.5251 27.1472 38.7646 26.6626 38.6525L26.617 38.3256C26.598 38.222 26.5828 38.1907 26.5011 38.1431C26.2606 38.0054 25.9575 38.0377 25.7418 38.2144C25.6648 38.2781 25.5926 38.3627 25.5176 38.4368C25.3608 38.5926 25.26 38.7722 25.0985 38.9119C24.9949 38.8359 24.9132 38.6762 24.9132 38.5023C24.9132 37.8182 26.3709 37.7212 26.8137 37.6851C27.2802 37.6471 27.7097 37.7317 28.1393 37.6319C28.9375 37.4466 29.1769 37.3412 28.8491 36.7264C28.2761 35.6516 26.5628 36.1695 25.6991 36.4213C25.3123 36.5344 24.8495 36.5914 24.4913 36.7767C24.3659 36.8413 24.2661 36.9012 24.0941 36.9012C23.5572 36.9012 24.1578 36.3548 23.5734 36.3596C23.0118 36.3634 22.7343 37.0608 22.4188 37.0874L22.4198 37.0903Z" fill="#C00000"/>
<path d="M81.0816 33.6761H74.8633L69.2674 25.3312L68.2601 26.7337V33.6761H63.0918V13.1454H68.2601V22.2952L74.8262 13.1454H80.7709L73.4617 22.6715L81.0816 33.6761Z" fill="#C00000"/>
<path d="M82.7568 33.6761V13.1454H96.6521V17.0708H87.8966V20.657H95.9736V24.5834H87.8966V29.7507H96.6521V33.6761H82.7568Z" fill="#C00000"/>
<path d="M117.752 33.6761H112.786L104.847 19.3628V33.6761H100.13V13.1454H106.465L113.036 24.9074V13.1454H117.752V33.6761Z" fill="#C00000"/>
<path d="M139.512 33.6761H134.547L126.606 19.3628V33.6761H121.889V13.1454H128.226L134.796 24.9074V13.1454H139.512V33.6761Z" fill="#C00000"/>
<path d="M143.65 33.6761V13.1454H157.544V17.0708H148.789V20.657H156.866V24.5834H148.789V29.7507H157.544V33.6761H143.65Z" fill="#C00000"/>
<path d="M180.001 33.6761H173.703L167.989 26.136H166.163V33.6761H161.023V13.1444H169.283C170.423 13.1444 171.416 13.2147 172.263 13.3563C173.11 13.5017 173.892 13.7991 174.607 14.2457C175.342 14.7161 175.925 15.309 176.359 16.0293C176.792 16.7496 177.008 17.6675 177.008 18.7783C177.008 20.35 176.654 21.6214 175.944 22.6002C175.233 23.5799 174.286 24.3562 173.096 24.9349L180.001 33.6752V33.6761ZM171.698 19.4141C171.698 18.8962 171.599 18.4534 171.401 18.0818C171.204 17.7103 170.879 17.4186 170.423 17.2162C170.102 17.0793 169.745 16.9948 169.35 16.9577C168.955 16.9197 168.465 16.9016 167.882 16.9016H166.164V22.4367H167.632C168.347 22.4367 168.955 22.394 169.453 22.3047C169.952 22.2201 170.376 22.0319 170.724 21.745C171.054 21.4913 171.298 21.1796 171.458 20.8223C171.618 20.465 171.698 19.9937 171.698 19.415V19.4141Z" fill="#C00000"/>
</svg>
