<svg width="24" height="24" viewBox="0 0 24 24" fill="none" xmlns="http://www.w3.org/2000/svg">
<path d="M10.8718 19.488C9.31979 19.488 7.87179 19.096 6.52779 18.312C5.23179 17.544 4.20779 16.512 3.45579 15.216C2.67179 13.872 2.27979 12.42 2.27979 10.86C2.27979 9.29999 2.67179 7.84799 3.45579 6.50399C4.22379 5.20799 5.25579 4.18399 6.55178 3.43199C7.89579 2.64799 9.34778 2.25599 10.9078 2.25599C12.4678 2.25599 13.9118 2.64799 15.2398 3.43199C16.5518 4.19999 17.5838 5.23199 18.3358 6.52799C19.1198 7.87199 19.5118 9.32399 19.5118 10.884C19.5118 12.444 19.1198 13.888 18.3358 15.216C17.5678 16.512 16.5278 17.544 15.2158 18.312C13.8878 19.096 12.4398 19.488 10.8718 19.488ZM10.8718 3.74399C9.57579 3.74399 8.37579 4.07199 7.27179 4.72799C6.19979 5.35199 5.35179 6.19999 4.72779 7.27199C4.07179 8.37599 3.74379 9.57599 3.74379 10.872C3.74379 12.168 4.07179 13.368 4.72779 14.472C5.35179 15.544 6.19979 16.392 7.27179 17.016C8.37579 17.672 9.57579 18 10.8718 18C12.1678 18 13.3678 17.672 14.4718 17.016C15.5438 16.392 16.3918 15.544 17.0158 14.472C17.6718 13.368 17.9998 12.168 17.9998 10.872C17.9998 9.57599 17.6718 8.37599 17.0158 7.27199C16.3918 6.19999 15.5438 5.35199 14.4718 4.72799C13.3678 4.07199 12.1678 3.74399 10.8718 3.74399ZM20.9998 21.744C20.7918 21.744 20.6158 21.672 20.4718 21.528L15.9118 16.968C15.8158 16.888 15.7438 16.784 15.6958 16.656C15.6478 16.528 15.6358 16.4 15.6598 16.272C15.6838 16.144 15.7358 16.028 15.8158 15.924C15.8958 15.82 16.0038 15.74 16.1398 15.684C16.2758 15.628 16.4238 15.62 16.5838 15.66C16.7438 15.7 16.8718 15.784 16.9678 15.912L21.5278 20.472C21.6398 20.584 21.7078 20.712 21.7318 20.856C21.7558 21 21.7398 21.144 21.6838 21.288C21.6278 21.432 21.5358 21.544 21.4078 21.624C21.2798 21.704 21.1438 21.744 20.9998 21.744Z" fill="white"/>
</svg>
