<svg width="30" height="31" viewBox="0 0 30 31" fill="none" xmlns="http://www.w3.org/2000/svg">
<g clip-path="url(#clip0_19_14555)">
<g clip-path="url(#clip1_19_14555)">
<g clip-path="url(#clip2_19_14555)">
<path d="M15 30.6602C23.2788 30.6602 29.9901 23.949 29.9901 15.6702C29.9901 7.39144 23.2788 0.680176 15 0.680176C6.72128 0.680176 0.0100098 7.39144 0.0100098 15.6702C0.0100098 23.949 6.72128 30.6602 15 30.6602Z" fill="#47B0D3"/>
<path d="M22.2764 7.06588C22.1308 6.96693 21.944 6.95199 21.7845 7.0262L5.67686 14.5246C5.39384 14.6563 5.21506 14.9445 5.22213 15.2566C5.22903 15.5626 5.41424 15.8374 5.69437 15.9601L20.5447 22.4279C21.0405 22.6533 21.6244 22.2985 21.6562 21.7573L22.4943 7.50856C22.5046 7.333 22.4219 7.16482 22.2764 7.06604V7.06588Z" fill="#E5E5E5"/>
<path d="M10.0598 17.8612L11.0636 24.5703L22.2121 7.0293L10.0598 17.8612Z" fill="#CCCCCC"/>
<path d="M21.7845 7.02596L5.67687 14.5244C5.39946 14.6535 5.2186 14.9413 5.22197 15.2472C5.22534 15.5536 5.41376 15.8372 5.69421 15.9599L10.0599 17.8612L22.2121 7.02933C22.0783 6.96476 21.9214 6.96219 21.7845 7.02596Z" fill="white"/>
<path d="M12.3895 18.8759L11.0635 24.5703L22.212 7.0293L12.3895 18.8759Z" fill="#E5E5E5"/>
<path d="M22.2762 7.0656C22.2557 7.05162 22.234 7.03974 22.2122 7.0293L12.3896 18.8759L20.5445 22.4276C21.0404 22.653 21.6243 22.2982 21.6561 21.757L22.4942 7.50829C22.5045 7.33272 22.4218 7.16454 22.2762 7.06576V7.0656Z" fill="white"/>
</g>
</g>
</g>
<defs>
<clipPath id="clip0_19_14555">
<rect width="30" height="29.98" fill="white" transform="translate(0 0.680176)"/>
</clipPath>
<clipPath id="clip1_19_14555">
<rect width="30" height="29.98" fill="white" transform="translate(0 0.680176)"/>
</clipPath>
<clipPath id="clip2_19_14555">
<rect width="29.9801" height="29.98" fill="white" transform="translate(0.0100098 0.680176)"/>
</clipPath>
</defs>
</svg>
