<svg width="20" height="19" viewBox="0 0 20 19" fill="none" xmlns="http://www.w3.org/2000/svg">
<path d="M10.2051 10.1895L8.39355 4.75488C8.29102 4.44727 8.42773 4.13965 8.73535 4.07129L10.8203 3.35352L11.9824 6.7373L14.0332 6.05371L12.9053 2.66992L14.9902 1.98633C15.2979 1.88379 15.6055 2.02051 15.6738 2.32812L17.7588 8.51465C17.8613 8.78809 17.6904 9.0957 17.417 9.19824L11.8799 11.0439C11.3672 10.668 10.8203 10.3604 10.2051 10.1895ZM19.8096 11.8643C19.9121 12.1377 19.7412 12.4453 19.4678 12.5479L12.1533 14.9746C12.1191 16.957 10.3418 18.5293 8.29102 18.1533C6.95801 17.9141 5.86426 16.7861 5.65918 15.4531C5.4541 14.1885 6.00098 13.0605 6.88965 12.3428L3.71094 2.875H0.703125C0.395508 2.875 0.15625 2.63574 0.15625 2.32812V1.23438C0.15625 0.960938 0.395508 0.6875 0.703125 0.6875H4.53125C4.97559 0.6875 5.41992 0.995117 5.55664 1.43945L8.94043 11.6592C9.96582 11.6592 10.8887 12.1719 11.4697 12.9238L18.75 10.4629C19.0576 10.3945 19.3652 10.5312 19.4678 10.8047L19.8096 11.8643ZM8.90625 16.5469C9.79492 16.5469 10.5469 15.8291 10.5469 14.9062C10.5469 14.0176 9.79492 13.2656 8.90625 13.2656C7.9834 13.2656 7.26562 14.0176 7.26562 14.9062C7.26562 15.8291 7.9834 16.5469 8.90625 16.5469Z" fill="#F2F4F7"/>
</svg>
