<svg width="81" height="26" viewBox="0 0 81 26" fill="none" xmlns="http://www.w3.org/2000/svg">
<g clip-path="url(#clip0_18_665)">
<g clip-path="url(#clip1_18_665)">
<g clip-path="url(#clip2_18_665)">
<path d="M33.1818 0.450079L29.1676 25.4298H35.5838L39.5955 0.450079H33.1818ZM52.5353 10.6254C50.2932 9.51823 48.9186 8.77085 48.9186 7.63855C48.946 6.60895 50.0809 5.55383 52.6153 5.55383C54.6997 5.50152 56.232 5.99144 57.3943 6.4788L57.9766 6.73858L58.8489 1.51212C57.5816 1.02232 55.5721 0.482519 53.0902 0.482519C46.754 0.482519 42.2925 3.77685 42.2649 8.48851C42.2125 11.9653 45.459 13.8946 47.8887 15.052C50.3709 16.2395 51.2156 17.0092 51.2156 18.0642C51.1882 19.6836 49.2086 20.4309 47.3616 20.4309C44.8023 20.4309 43.4275 20.0462 41.3405 19.1436L40.4955 18.7588L39.5982 24.1903C41.1055 24.8603 43.8772 25.4499 46.7543 25.4801C53.4879 25.4801 57.8694 22.2356 57.9244 17.2143C57.9465 14.4598 56.2344 12.3501 52.5351 10.6254H52.5353ZM75.2979 0.527395H70.3339C68.8042 0.527395 67.6419 0.967314 66.9796 2.5371L57.449 25.4298H64.1827L66.0372 20.4735H73.5707L74.533 25.4499H80.4719L75.2981 0.527524L75.2979 0.527395ZM67.9045 15.4716C68.0345 15.4841 70.489 7.3807 70.489 7.3807L72.4436 15.4716C72.4436 15.4716 69.1718 15.4716 67.9045 15.4716ZM23.8065 0.449951L17.5204 17.4214L16.8355 14.0745C15.6732 10.2127 12.0291 6.01619 7.9624 3.93174L13.7187 25.4048H20.5073L30.5952 0.452644H23.8065V0.449951Z" fill="#2394BC"/>
<path d="M14.7208 3.67159C14.2309 1.7669 12.6685 0.482145 10.5468 0.454834H0.591345L0.48877 0.917063C8.25473 2.83163 14.7731 8.72277 16.8877 14.2641L14.7207 3.67159H14.7208Z" fill="#EFC75E"/>
</g>
</g>
</g>
<defs>
<clipPath id="clip0_18_665">
<rect width="80" height="25.03" fill="white" transform="translate(0.47998 0.449951)"/>
</clipPath>
<clipPath id="clip1_18_665">
<rect width="80" height="25.03" fill="white" transform="translate(0.47998 0.449951)"/>
</clipPath>
<clipPath id="clip2_18_665">
<rect width="79.9828" height="25.03" fill="white" transform="translate(0.48877 0.449951)"/>
</clipPath>
</defs>
</svg>
