<svg width="31" height="31" viewBox="0 0 31 31" fill="none" xmlns="http://www.w3.org/2000/svg">
<g clip-path="url(#clip0_19_14569)">
<g clip-path="url(#clip1_19_14569)">
<g clip-path="url(#clip2_19_14569)">
<path d="M0.199966 30.6801L2.77997 22.9406C1.47081 20.7387 0.717219 18.1691 0.717219 15.4215C0.717219 7.28013 7.31723 0.680176 15.4586 0.680176C23.6 0.680176 30.1999 7.28013 30.1999 15.4215C30.1999 23.5629 23.5999 30.1629 15.4586 30.1629C12.9815 30.1629 10.6487 29.5489 8.59994 28.4699L0.199951 30.6801L0.199966 30.6801Z" fill="#2CB742"/>
<path d="M24.8636 20.3273C24.1829 19.041 21.6728 17.5699 21.6728 17.5699C21.1048 17.2462 20.4195 17.21 20.0957 17.7872C20.0957 17.7872 19.28 18.7653 19.0726 18.906C18.125 19.5479 17.2473 19.5231 16.3612 18.6371L14.3021 16.5779L12.2429 14.5187C11.3569 13.6327 11.3321 12.755 11.974 11.8073C12.1146 11.6 13.0928 10.7843 13.0928 10.7843C13.67 10.4599 13.6338 9.77514 13.31 9.20721C13.31 9.20721 11.839 6.69707 10.5526 6.01637C10.0054 5.72669 9.3335 5.82809 8.8959 6.26569L7.98657 7.17495C5.10192 10.0596 6.52223 13.3161 9.40687 16.2008L12.0433 18.8372L14.6797 21.4736C17.5643 24.3582 20.8208 25.7785 23.7055 22.8939L24.6148 21.9846C25.0524 21.546 25.1533 20.8741 24.8636 20.3273L24.8636 20.3273Z" fill="white"/>
</g>
</g>
</g>
<defs>
<clipPath id="clip0_19_14569">
<rect width="30" height="30" fill="white" transform="translate(0.199951 0.680176)"/>
</clipPath>
<clipPath id="clip1_19_14569">
<rect width="30" height="30" fill="white" transform="translate(0.199951 0.680176)"/>
</clipPath>
<clipPath id="clip2_19_14569">
<rect width="30" height="30" fill="white" transform="translate(0.199951 0.680176)"/>
</clipPath>
</defs>
</svg>
