<svg width="31" height="31" viewBox="0 0 31 31" fill="none" xmlns="http://www.w3.org/2000/svg">
<g clip-path="url(#clip0_19_14588)">
<g clip-path="url(#clip1_19_14588)">
<g clip-path="url(#clip2_19_14588)">
<path d="M15.6001 30.6802C23.8844 30.6802 30.6001 23.9645 30.6001 15.6802C30.6001 7.39591 23.8844 0.680176 15.6001 0.680176C7.31583 0.680176 0.600098 7.39591 0.600098 15.6802C0.600098 23.9645 7.31583 30.6802 15.6001 30.6802Z" fill="#D42428"/>
<path d="M26.2061 5.07178C32.0639 10.9302 32.0645 20.4278 26.2061 26.2862C20.3484 32.1439 10.8501 32.1443 4.9917 26.2862L26.2061 5.07178Z" fill="#CC202D"/>
<path d="M23.4498 12.7854C23.4498 11.5279 22.4311 10.5088 21.1742 10.5088H10.4986C9.24207 10.5088 8.22363 11.5282 8.22363 12.7854V18.8903C8.22363 20.1478 9.24241 21.1669 10.4986 21.1669H21.1742C22.4311 21.1669 23.4498 20.1474 23.4498 18.8903V12.7854ZM14.3136 18.4132V12.6792L18.662 15.5462L14.3136 18.4132Z" fill="white"/>
</g>
</g>
</g>
<defs>
<clipPath id="clip0_19_14588">
<rect width="30" height="30" fill="white" transform="translate(0.600098 0.680176)"/>
</clipPath>
<clipPath id="clip1_19_14588">
<rect width="30" height="30" fill="white" transform="translate(0.600098 0.680176)"/>
</clipPath>
<clipPath id="clip2_19_14588">
<rect width="30" height="30" fill="white" transform="translate(0.600098 0.680176)"/>
</clipPath>
</defs>
</svg>
